<svg version="1.2" preserveAspectRatio="xMidYMid" fill-rule="evenodd" stroke-width="28.222" stroke-linejoin="round" xmlns="http://www.w3.org/2000/svg" xmlns:ooo="http://xml.openoffice.org/svg/export" xmlns:xlink="http://www.w3.org/1999/xlink" xmlns:presentation="http://sun.com/xmlns/staroffice/presentation" xmlns:smil="http://www.w3.org/2001/SMIL20/" xmlns:anim="urn:oasis:names:tc:opendocument:xmlns:animation:1.0" xmlns:svg="urn:oasis:names:tc:opendocument:xmlns:svg-compatible:1.0" xml:space="preserve" viewBox="2424.07 6244.08 16331.85 15711.83">
 <defs class="ClipPathGroup">
  <clipPath id="presentation_clip_path" clipPathUnits="userSpaceOnUse">
   <rect x="0" y="0" width="21000" height="29700"/>
  </clipPath>
  <clipPath id="presentation_clip_path_shrink" clipPathUnits="userSpaceOnUse">
   <rect x="21" y="29" width="20958" height="29641"/>
  </clipPath>
 </defs>
 <defs class="TextShapeIndex">
  <g ooo:slide="id1" ooo:id-list="id3 id4 id5 id6 id7"/>
 </defs>
 <defs class="EmbeddedBulletChars">
  <g id="bullet-char-template-57356" transform="scale(0.00048828125,-0.00048828125)">
   <path d="M 580,1141 L 1163,571 580,0 -4,571 580,1141 Z"/>
  </g>
  <g id="bullet-char-template-57354" transform="scale(0.00048828125,-0.00048828125)">
   <path d="M 8,1128 L 1137,1128 1137,0 8,0 8,1128 Z"/>
  </g>
  <g id="bullet-char-template-10146" transform="scale(0.00048828125,-0.00048828125)">
   <path d="M 174,0 L 602,739 174,1481 1456,739 174,0 Z M 1358,739 L 309,1346 659,739 1358,739 Z"/>
  </g>
  <g id="bullet-char-template-10132" transform="scale(0.00048828125,-0.00048828125)">
   <path d="M 2015,739 L 1276,0 717,0 1260,543 174,543 174,936 1260,936 717,1481 1274,1481 2015,739 Z"/>
  </g>
  <g id="bullet-char-template-10007" transform="scale(0.00048828125,-0.00048828125)">
   <path d="M 0,-2 C -7,14 -16,27 -25,37 L 356,567 C 262,823 215,952 215,954 215,979 228,992 255,992 264,992 276,990 289,987 310,991 331,999 354,1012 L 381,999 492,748 772,1049 836,1024 860,1049 C 881,1039 901,1025 922,1006 886,937 835,863 770,784 769,783 710,716 594,584 L 774,223 C 774,196 753,168 711,139 L 727,119 C 717,90 699,76 672,76 641,76 570,178 457,381 L 164,-76 C 142,-110 111,-127 72,-127 30,-127 9,-110 8,-76 1,-67 -2,-52 -2,-32 -2,-23 -1,-13 0,-2 Z"/>
  </g>
  <g id="bullet-char-template-10004" transform="scale(0.00048828125,-0.00048828125)">
   <path d="M 285,-33 C 182,-33 111,30 74,156 52,228 41,333 41,471 41,549 55,616 82,672 116,743 169,778 240,778 293,778 328,747 346,684 L 369,508 C 377,444 397,411 428,410 L 1163,1116 C 1174,1127 1196,1133 1229,1133 1271,1133 1292,1118 1292,1087 L 1292,965 C 1292,929 1282,901 1262,881 L 442,47 C 390,-6 338,-33 285,-33 Z"/>
  </g>
  <g id="bullet-char-template-9679" transform="scale(0.00048828125,-0.00048828125)">
   <path d="M 813,0 C 632,0 489,54 383,161 276,268 223,411 223,592 223,773 276,916 383,1023 489,1130 632,1184 813,1184 992,1184 1136,1130 1245,1023 1353,916 1407,772 1407,592 1407,412 1353,268 1245,161 1136,54 992,0 813,0 Z"/>
  </g>
  <g id="bullet-char-template-8226" transform="scale(0.00048828125,-0.00048828125)">
   <path d="M 346,457 C 273,457 209,483 155,535 101,586 74,649 74,723 74,796 101,859 155,911 209,963 273,989 346,989 419,989 480,963 531,910 582,859 608,796 608,723 608,648 583,586 532,535 482,483 420,457 346,457 Z"/>
  </g>
  <g id="bullet-char-template-8211" transform="scale(0.00048828125,-0.00048828125)">
   <path d="M -4,459 L 1135,459 1135,606 -4,606 -4,459 Z"/>
  </g>
  <g id="bullet-char-template-61548" transform="scale(0.00048828125,-0.00048828125)">
   <path d="M 173,740 C 173,903 231,1043 346,1159 462,1274 601,1332 765,1332 928,1332 1067,1274 1183,1159 1299,1043 1357,903 1357,740 1357,577 1299,437 1183,322 1067,206 928,148 765,148 601,148 462,206 346,322 231,437 173,577 173,740 Z"/>
  </g>
 </defs>
 <g>
  <g id="id2" class="Master_Slide">
   <g id="bg-id2" class="Background"/>
   <g id="bo-id2" class="BackgroundObjects"/>
  </g>
 </g>
 <g class="SlideGroup">
  <g>
   <g id="container-id1">
    <g id="id1" class="Slide" clip-path="url(#presentation_clip_path)">
     <g class="Page">
      <g class="com.sun.star.drawing.CustomShape">
       <g id="id3">
        <rect class="BoundingBox" stroke="none" fill="none" x="3974" y="13199" width="13155" height="1854"/>
        <path fill="none" stroke="rgb(0,0,0)" stroke-width="212" stroke-linejoin="round" d="M 4353,13305 L 4354,13305 C 4305,13305 4258,13318 4217,13342 4175,13366 4141,13400 4117,13442 4093,13483 4080,13530 4080,13579 L 4080,14672 4080,14673 C 4080,14721 4093,14768 4117,14809 4141,14851 4175,14885 4217,14909 4258,14933 4305,14946 4354,14946 L 16748,14946 16749,14946 C 16797,14946 16844,14933 16885,14909 16927,14885 16961,14851 16985,14809 17009,14768 17022,14721 17022,14673 L 17021,13578 17022,13579 17022,13579 C 17022,13530 17009,13483 16985,13442 16961,13400 16927,13366 16885,13342 16844,13318 16797,13305 16749,13305 L 4353,13305 Z"/>
       </g>
      </g>
      <g class="com.sun.star.drawing.CustomShape">
       <g id="id4">
        <rect class="BoundingBox" stroke="none" fill="none" x="3974" y="14839" width="13155" height="1858"/>
        <path fill="none" stroke="rgb(0,0,0)" stroke-width="212" stroke-linejoin="round" d="M 4354,14945 L 4354,14945 C 4306,14945 4259,14958 4217,14982 4175,15006 4141,15040 4117,15082 4093,15124 4080,15171 4080,15219 L 4080,16315 4080,16316 C 4080,16364 4093,16411 4117,16453 4141,16495 4175,16529 4217,16553 4259,16577 4306,16590 4354,16590 L 16747,16590 16748,16590 C 16796,16590 16843,16577 16885,16553 16927,16529 16961,16495 16985,16453 17009,16411 17022,16364 17022,16316 L 17022,15219 17022,15219 17022,15219 C 17022,15171 17009,15124 16985,15082 16961,15040 16927,15006 16885,14982 16843,14958 16796,14945 16748,14945 L 4354,14945 Z"/>
       </g>
      </g>
      <g class="com.sun.star.drawing.CustomShape">
       <g id="id5">
        <rect class="BoundingBox" stroke="none" fill="none" x="3974" y="11555" width="13155" height="1858"/>
        <path fill="none" stroke="rgb(0,0,0)" stroke-width="212" stroke-linejoin="round" d="M 4354,11661 L 4354,11661 C 4306,11661 4259,11674 4217,11698 4175,11722 4141,11756 4117,11798 4093,11840 4080,11887 4080,11935 L 4080,13031 4080,13032 C 4080,13080 4093,13127 4117,13169 4141,13211 4175,13245 4217,13269 4259,13293 4306,13306 4354,13306 L 16747,13306 16748,13306 C 16796,13306 16843,13293 16885,13269 16927,13245 16961,13211 16985,13169 17009,13127 17022,13080 17022,13032 L 17022,11935 17022,11935 17022,11935 C 17022,11887 17009,11840 16985,11798 16961,11756 16927,11722 16885,11698 16843,11674 16796,11661 16748,11661 L 4354,11661 Z"/>
       </g>
      </g>
      <g class="com.sun.star.drawing.EllipseShape">
       <g id="id6">
        <rect class="BoundingBox" stroke="none" fill="none" x="2577" y="6394" width="16031" height="5980"/>
        <path fill="rgb(255,182,143)" stroke="none" d="M 2683,12266 C 2694,11262 3059,10276 3743,9407 4437,8523 5435,7789 6638,7279 7840,6769 9204,6500 10592,6500 11981,6500 13345,6769 14547,7279 15750,7789 16748,8523 17442,9406 18110,10257 18474,11218 18500,12199 L 2683,12266 Z"/>
        <path fill="none" stroke="rgb(0,0,0)" stroke-width="212" stroke-linejoin="round" d="M 2683,12266 C 2694,11262 3059,10276 3743,9407 4437,8523 5435,7789 6638,7279 7840,6769 9204,6500 10592,6500 11981,6500 13345,6769 14547,7279 15750,7789 16748,8523 17442,9406 18110,10257 18474,11218 18500,12199 L 2683,12266 Z"/>
       </g>
      </g>
      <g class="com.sun.star.drawing.EllipseShape">
       <g id="id7">
        <rect class="BoundingBox" stroke="none" fill="none" x="2574" y="15824" width="16031" height="5983"/>
        <path fill="rgb(255,182,143)" stroke="none" d="M 18495,15930 C 18497,15980 18498,16029 18498,16079 18498,17065 18133,18035 17438,18889 16744,19744 15746,20453 14544,20947 13341,21440 11977,21700 10589,21700 9201,21700 7837,21440 6635,20947 5432,20453 4434,19744 3740,18889 3045,18035 2680,17065 2680,16079 2680,16030 2681,15981 2683,15932 L 18495,15930 Z"/>
        <path fill="none" stroke="rgb(0,0,0)" stroke-width="212" stroke-linejoin="round" d="M 18495,15930 C 18497,15980 18498,16029 18498,16079 18498,17065 18133,18035 17438,18889 16744,19744 15746,20453 14544,20947 13341,21440 11977,21700 10589,21700 9201,21700 7837,21440 6635,20947 5432,20453 4434,19744 3740,18889 3045,18035 2680,17065 2680,16079 2680,16030 2681,15981 2683,15932 L 18495,15930 Z"/>
       </g>
      </g>
     </g>
    </g>
   </g>
  </g>
 </g>
</svg>