<svg version="1.2" width="196" height="196" viewBox="0 0 21000 29700" preserveAspectRatio="xMidYMid" fill-rule="evenodd" stroke-width="28.222" stroke-linejoin="round" xmlns="http://www.w3.org/2000/svg" xml:space="preserve"><defs class="ClipPathGroup"><clipPath id="a" clipPathUnits="userSpaceOnUse"><path d="M0 0h21000v29700H0z"/></clipPath></defs><g class="Master_Slide"><g class="Background"/><g class="BackgroundObjects"/></g><g class="SlideGroup"><g class="Slide" clip-path="url(#a)"><g class="Page"><g class="com.sun.star.drawing.CustomShape"><path class="BoundingBox" fill="none" d="M4079 13304h12945v1644H4079z"/><path fill="#773200" d="M4353 13305h1c-49 0-96 13-137 37-42 24-76 58-100 100-24 41-37 88-37 137v1094c0 48 13 95 37 136 24 42 58 76 100 100 41 24 88 37 137 37h12395c48 0 95-13 136-37 42-24 76-58 100-100 24-41 37-88 37-136l-1-1095 1 1c0-49-13-96-37-137-24-42-58-76-100-100-41-24-88-37-136-37H4353Z"/><path fill="none" stroke="#3465A4" d="M4353 13305h1c-49 0-96 13-137 37-42 24-76 58-100 100-24 41-37 88-37 137v1094c0 48 13 95 37 136 24 42 58 76 100 100 41 24 88 37 137 37h12395c48 0 95-13 136-37 42-24 76-58 100-100 24-41 37-88 37-136l-1-1095 1 1c0-49-13-96-37-137-24-42-58-76-100-100-41-24-88-37-136-37H4353Z"/></g><g class="com.sun.star.drawing.CustomShape"><path class="BoundingBox" fill="none" d="M4079 14944h12945v1648H4079z"/><path fill="#CEC891" d="M4354 14945c-48 0-95 13-137 37s-76 58-100 100-37 89-37 137v1097c0 48 13 95 37 137s58 76 100 100 89 37 137 37h12394c48 0 95-13 137-37s76-58 100-100 37-89 37-137v-1097c0-48-13-95-37-137s-58-76-100-100-89-37-137-37H4354Z"/><path fill="none" stroke="#3465A4" d="M4354 14945c-48 0-95 13-137 37s-76 58-100 100-37 89-37 137v1097c0 48 13 95 37 137s58 76 100 100 89 37 137 37h12394c48 0 95-13 137-37s76-58 100-100 37-89 37-137v-1097c0-48-13-95-37-137s-58-76-100-100-89-37-137-37H4354Z"/></g><g class="com.sun.star.drawing.CustomShape"><path class="BoundingBox" fill="none" d="M4079 11660h12945v1648H4079z"/><path fill="#E6BEAB" d="M4354 11661c-48 0-95 13-137 37s-76 58-100 100-37 89-37 137v1097c0 48 13 95 37 137s58 76 100 100 89 37 137 37h12394c48 0 95-13 137-37s76-58 100-100 37-89 37-137v-1097c0-48-13-95-37-137s-58-76-100-100-89-37-137-37H4354Z"/><path fill="none" stroke="#3465A4" d="M4354 11661c-48 0-95 13-137 37s-76 58-100 100-37 89-37 137v1097c0 48 13 95 37 137s58 76 100 100 89 37 137 37h12394c48 0 95-13 137-37s76-58 100-100 37-89 37-137v-1097c0-48-13-95-37-137s-58-76-100-100-89-37-137-37H4354Z"/></g><g class="com.sun.star.drawing.EllipseShape"><path class="BoundingBox" fill="none" d="M2682 5749h15820v6519H2682z"/><path fill="#FFB68F" d="M2683 12266c11-1135 376-2248 1060-3231 694-999 1692-1828 2895-2405 1202-576 2566-880 3954-880 1389 0 2753 304 3955 880 1203 577 2201 1406 2895 2404 668 961 1032 2046 1058 3154l-15817 78Z"/><path fill="none" stroke="#3465A4" d="M2683 12266c11-1135 376-2248 1060-3231 694-999 1692-1828 2895-2405 1202-576 2566-880 3954-880 1389 0 2753 304 3955 880 1203 577 2201 1406 2895 2404 668 961 1032 2046 1058 3154l-15817 78Z"/><text class="SVGTextShape"><tspan class="TextParagraph" font-family="Source Code Pro, monospace" font-size="2822" font-weight="700"><tspan class="TextPosition" x="7204" y="10011"><tspan fill="#C9211E" style="white-space:pre">büfé</tspan></tspan></tspan></text></g><g class="com.sun.star.drawing.EllipseShape"><path class="BoundingBox" fill="none" d="M2601 15929h15821v6573H2601z"/><path fill="#FFB68F" d="M18417 15930c2 56 3 112 3 168 0 1124-365 2228-1060 3201-694 973-1692 1782-2894 2343-1203 562-2567 858-3955 858s-2752-296-3954-858c-1203-561-2201-1370-2895-2343-695-973-1060-2077-1060-3200 0-56 1-111 3-167l15812-2Z"/><path fill="none" stroke="#3465A4" d="M18417 15930c2 56 3 112 3 168 0 1124-365 2228-1060 3201-694 973-1692 1782-2894 2343-1203 562-2567 858-3955 858s-2752-296-3954-858c-1203-561-2201-1370-2895-2343-695-973-1060-2077-1060-3200 0-56 1-111 3-167l15812-2Z"/><text class="SVGTextShape"><tspan class="TextParagraph" font-family="Source Code Pro, monospace" font-size="2822" font-weight="700"><tspan class="TextPosition" x="7970" y="20217"><tspan fill="#C9211E" style="white-space:pre">app</tspan></tspan></tspan></text></g></g></g></g></svg>